PathFileType	4	(X/Y/Z)	 s11c0301.trc
DataRate	CameraRate	NumFrames	NumMarkers	Units	OrigDataRate	OrigDataStartFrame	OrigNumFrames
200	200	6	48	mm	200	1251	2000
Frame#	Time	racr			lacr			c7			jug			rlel			rdr			llel			ldr			s2			lic			ric			lasi			rasi			rpsi			lpsi			rgt			lgt			rth1			rth2			rth3			rth4			rlfc			rmfc			rsh1			rsh2			rsh3			rsh4			rlmal			rcal			rtoe			rmt5			lth1			lth2			lth4			lth3			llfc			lmfc			llmal			lcal			lmt5			lsh1			lsh2			lsh3			lsh4			ltoe			SBIKE			LBIKE			RBIKE			
		X1	Y1	Z1	X2	Y2	Z2	X3	Y3	Z3	X4	Y4	Z4	X5	Y5	Z5	X6	Y6	Z6	X7	Y7	Z7	X8	Y8	Z8	X9	Y9	Z9	X10	Y10	Z10	X11	Y11	Z11	X12	Y12	Z12	X13	Y13	Z13	X14	Y14	Z14	X15	Y15	Z15	X16	Y16	Z16	X17	Y17	Z17	X18	Y18	Z18	X19	Y19	Z19	X20	Y20	Z20	X21	Y21	Z21	X22	Y22	Z22	X23	Y23	Z23	X24	Y24	Z24	X25	Y25	Z25	X26	Y26	Z26	X27	Y27	Z27	X28	Y28	Z28	X29	Y29	Z29	X30	Y30	Z30	X31	Y31	Z31	X32	Y32	Z32	X33	Y33	Z33	X34	Y34	Z34	X35	Y35	Z35	X36	Y36	Z36	X37	Y37	Z37	X38	Y38	Z38	X39	Y39	Z39	X40	Y40	Z40	X41	Y41	Z41	X42	Y42	Z42	X43	Y43	Z43	X44	Y44	Z44	X45	Y45	Z45	X46	Y46	Z46	X47	Y47	Z47	X48	Y48	Z48	
1251	6.2550	854.210673	1340.909033	-65.894055	798.821085	1378.563941	-416.986199	813.734075	1458.917494	-226.738531	791.024534	1275.222713	-254.078316	685.524062	1143.148488	77.320591	799.285367	929.727536	-29.626829	643.553807	1142.426440	-579.248572	813.037986	927.195557	-447.980506	206.129829	1293.404059	-193.163212	412.480751	1319.333495	-411.540447	433.175934	1212.122760	-27.500641	428.345546	1231.599267	-380.813353	442.618060	1158.891819	-73.765646	273.628682	1342.725617	-131.196522	258.192063	1356.982028	-222.180335	306.013549	1090.690810	-21.772563	328.332504	1202.326430	-436.810917	321.029002	970.176105	-20.019265	353.788483	887.320221	-30.741068	342.459610	802.774516	-50.167464	390.002555	892.898717	-36.267018	358.429652	700.845310	-72.238335	359.290563	680.725533	-196.927789	290.201664	557.601280	-55.635052	281.392946	470.894042	-70.583977	231.121124	399.765198	-73.977894	309.677860	463.716101	-96.508397	177.620132	270.484145	-85.770809	118.994335	288.941875	-136.582165	354.237818	122.498064	-135.604761	278.747831	128.495288	-66.780591	452.775628	1112.177960	-454.559088	529.768055	1074.846281	-447.569542	552.648870	1099.981361	-432.192810	580.911697	1000.943527	-453.241766	670.274472	897.190629	-431.728319	675.670636	877.120964	-299.489526	323.964709	647.428790	-413.766111	263.702495	671.373692	-379.432455	322.632018	470.209285	-438.399993	576.486853	825.235721	-450.900538	525.132856	757.378191	-437.133790	444.880948	720.739892	-433.596922	546.618522	734.842793	-415.050762	387.666733	400.060550	-369.098025	-204.222286	957.598895	-260.803366	1.458173	82.710574	-461.004196	-15.193432	81.130686	-62.470826	
1252	6.2600	855.804163	1342.427431	-69.447285	796.609537	1379.525581	-420.457360	813.719536	1459.599250	-230.219725	790.388575	1275.916269	-256.526148	688.366884	1145.061233	75.617395	799.741477	929.743819	-29.648606	637.836924	1140.518723	-577.693483	812.404352	927.608096	-447.704603	206.760920	1293.690037	-190.308024	409.762948	1321.633223	-411.440023	435.695720	1212.716538	-28.440802	426.700490	1233.882230	-380.401597	444.623158	1159.572982	-74.112610	274.845794	1343.297891	-128.576937	257.713507	1358.175181	-218.750748	307.155491	1091.713714	-21.258766	327.419843	1205.054599	-436.589572	321.313050	971.924037	-19.430727	353.423372	889.475377	-30.755674	341.066894	804.311058	-49.626206	389.642818	894.012560	-36.048655	356.097065	701.640559	-71.598388	355.849947	682.645642	-197.204169	286.619036	558.817417	-55.238317	276.631016	472.273400	-70.463354	225.451065	401.818264	-73.761422	304.765821	464.805052	-96.331561	170.158013	273.228605	-85.826334	112.400898	293.026775	-136.952965	343.767908	121.510721	-135.965506	268.589922	129.132097	-67.220298	452.614490	1114.612520	-453.856898	529.897868	1078.049136	-446.571717	552.562740	1103.668163	-431.603846	580.174156	1004.693547	-453.388202	673.460556	902.959497	-430.893258	679.528488	882.789366	-297.567865	331.287628	646.982031	-413.529844	270.116602	669.769228	-379.194568	333.363804	469.801939	-437.904179	581.168883	829.042286	-449.238854	530.977672	760.198567	-435.764929	451.373687	722.173443	-432.626870	552.744426	738.028493	-413.477208	399.773045	401.024824	-368.758303	-204.257808	957.614970	-260.838889	1.462882	82.708522	-461.002035	-15.154838	81.132484	-62.531170	
1253	6.2650	857.272896	1343.791593	-72.847238	794.471645	1380.156489	-423.861820	813.740323	1459.960122	-233.597722	789.669591	1276.486087	-258.924266	690.985332	1146.802013	74.116705	800.203657	929.728071	-29.587200	632.152538	1138.780765	-575.831183	811.744499	928.041321	-447.410034	206.818287	1294.577367	-187.441884	407.221635	1323.751217	-411.132940	438.173604	1212.985049	-29.200978	425.093649	1236.052522	-380.255208	446.509689	1160.159543	-74.355273	276.103076	1343.997561	-126.414864	257.523412	1359.232310	-216.174739	308.405409	1092.969023	-20.461364	326.259548	1207.444688	-436.126433	322.190892	973.677755	-18.930972	353.695936	890.711170	-30.395309	340.514739	805.936570	-49.090194	389.875866	895.331468	-35.912476	354.918636	702.818168	-70.739685	353.683052	684.755186	-196.936933	284.150859	560.325337	-54.706703	272.720246	474.062750	-70.239014	220.413064	404.456720	-73.577700	300.709596	466.199550	-96.247230	163.219741	276.776087	-85.974796	106.105214	298.032278	-137.305770	333.146993	121.024553	-136.272937	258.057713	130.621987	-67.275200	452.355909	1116.732560	-453.223076	529.929933	1081.044541	-445.617827	552.316629	1107.037226	-431.121314	577.227633	1009.090585	-454.098964	677.198945	908.908392	-428.408867	682.905885	888.115167	-295.727868	338.137657	645.733973	-412.905196	276.426107	667.234526	-378.936040	344.001944	468.869917	-437.551294	585.290661	832.123410	-447.548517	536.236090	762.432705	-434.252307	457.334813	722.947024	-431.607354	558.294915	740.640461	-411.930059	411.684385	401.340584	-368.247055	-204.258718	957.631497	-260.886162	1.448179	82.738009	-461.011935	-15.133753	81.169730	-62.558709	
1254	6.2700	858.483697	1344.912400	-76.128113	792.511635	1380.457702	-427.153038	813.682018	1460.090274	-236.878199	788.941582	1276.803513	-260.997149	693.294601	1148.347886	72.656775	800.579572	929.705808	-29.547263	626.489166	1137.358687	-573.684775	811.058355	928.495585	-447.096610	207.272479	1295.719814	-185.048408	404.881867	1325.972915	-410.559990	440.482212	1213.852709	-30.099611	423.627130	1238.028642	-380.223546	448.358604	1160.933231	-74.787217	277.362513	1345.163702	-124.869317	259.110976	1359.655715	-216.467716	309.776939	1094.318092	-19.523505	325.051822	1209.993823	-435.793567	323.459994	975.427588	-18.480446	354.566593	892.275939	-30.018458	340.955062	807.649118	-48.585620	390.784140	896.908031	-35.701220	355.156296	703.927752	-69.737508	353.225111	686.509252	-195.282909	282.587866	562.259296	-54.184581	269.680616	476.310589	-70.068455	216.203005	407.478595	-73.406328	296.821011	467.803593	-97.196322	156.642852	281.223294	-86.007153	100.412165	303.662759	-137.695668	322.773029	121.060456	-136.610025	247.962969	132.668998	-67.558371	452.001381	1118.822252	-452.694916	529.768596	1083.885841	-444.889832	551.797133	1110.205774	-430.749662	577.644968	1012.264321	-453.081679	680.214680	913.990012	-426.275544	685.608815	893.669180	-293.918270	344.593334	643.849671	-411.997425	282.308023	664.015255	-378.374181	354.508999	467.374119	-437.300974	588.514382	834.987900	-446.375407	540.962222	764.153996	-432.848666	462.768806	723.249200	-430.592565	563.278821	742.828243	-410.372110	423.484318	401.242214	-367.885973	-204.263860	957.700485	-260.938906	1.430757	82.769774	-461.007889	-15.138684	81.220157	-62.560702	
1255	6.2750	859.424410	1345.842722	-79.303655	790.889019	1380.423495	-430.309645	813.661487	1459.940663	-240.016154	788.189766	1277.101475	-263.077301	695.303801	1149.560433	71.349813	800.918999	929.673118	-29.444383	620.911936	1136.196538	-571.333557	810.345846	928.971238	-446.764142	207.310011	1297.434415	-183.121499	402.817138	1328.008651	-409.846171	441.558869	1214.582767	-31.766143	422.158528	1239.959647	-380.451841	450.084611	1161.693703	-75.012779	277.120760	1347.481042	-121.495830	259.068765	1361.357472	-214.763928	311.109228	1095.882024	-18.536279	323.881891	1212.314700	-435.457468	325.111068	977.051998	-18.030767	355.996677	893.786608	-29.652651	342.369389	809.411964	-47.947088	392.327549	898.633393	-35.635669	356.651862	705.369218	-68.392290	354.531964	688.658641	-194.800526	281.918856	564.429787	-53.393298	267.423828	478.665983	-69.486819	212.635335	411.002078	-73.198238	294.929553	470.123338	-95.772498	150.704696	286.092457	-86.015208	95.159108	309.944473	-138.001153	312.481763	121.569671	-136.858739	238.148036	135.234353	-67.891479	451.467053	1120.705180	-452.159078	529.480369	1086.515569	-444.256776	550.881054	1113.398873	-430.391031	578.042695	1015.325483	-452.084972	682.226791	918.881234	-424.133832	687.629603	898.650041	-292.356892	350.722714	641.374661	-410.881119	287.842819	660.015021	-377.975481	364.732618	465.128711	-436.723728	591.407840	837.125599	-444.677412	545.133589	765.363940	-431.468176	467.712885	722.972775	-429.556900	567.754536	744.409070	-408.904526	435.084702	400.457227	-367.353723	-204.267035	957.778284	-260.988163	1.445975	82.860711	-461.040352	-15.107474	81.267347	-62.582851	
1256	6.2800	860.101758	1346.474879	-82.307050	789.611024	1379.884342	-433.019376	813.665725	1459.760052	-242.945918	787.383018	1277.141106	-264.879378	697.004511	1150.640049	70.107242	801.226237	929.640980	-29.330403	615.625613	1135.239929	-568.514362	809.606899	929.468635	-446.412440	207.512706	1299.281824	-181.510763	401.066152	1330.093601	-409.109884	444.203847	1215.751129	-31.564144	420.660225	1241.923177	-380.865117	451.501209	1162.865971	-75.248124	277.956292	1349.037454	-120.073280	259.011948	1363.376109	-213.435963	312.463128	1097.449523	-17.629190	322.715129	1214.788634	-435.110743	326.616056	979.081227	-17.726331	358.473274	895.740063	-29.434676	344.950479	810.979885	-47.173832	394.296888	900.589208	-35.828355	359.240708	706.710689	-67.253255	357.473972	690.166492	-193.263549	282.077251	566.943351	-52.493740	265.855402	481.745489	-69.026817	209.711632	415.059030	-72.756739	292.531220	472.352709	-96.377808	145.202766	291.592792	-85.983992	90.571462	316.987397	-138.252034	302.388093	122.607810	-137.205226	228.525253	138.448345	-68.191728	450.736727	1122.611690	-451.588091	529.006470	1088.873254	-443.692804	549.665948	1115.841920	-429.681880	577.636202	1017.990231	-451.373991	683.228631	923.127330	-422.691019	688.827317	903.425486	-290.901564	356.522679	638.203065	-409.724873	293.055867	655.291817	-377.517498	374.675821	462.288637	-436.318295	593.664500	838.692469	-443.117213	548.741317	765.965736	-430.377843	472.170391	722.124075	-428.684750	571.674939	745.551307	-407.578722	446.367156	399.165958	-367.048241	-204.258510	957.847866	-261.024545	1.459247	82.907802	-461.023619	-15.105335	81.338509	-62.581584	
